<svg xmlns="http://www.w3.org/2000/svg" xmlns:xlink="http://www.w3.org/1999/xlink" width="500" zoomAndPan="magnify" viewBox="127.5 110 140 140" height="500" preserveAspectRatio="xMidYMid meet" version="1.0"><defs><g/></defs><g fill="#ffffff" fill-opacity="1"><g transform="translate(124.693355, 210.9011)"><g><path d="M 7.492188 -64.5 L 7.492188 0 L 19.550781 0 L 19.550781 -21.925781 L 31.882812 -21.925781 C 48.695312 -21.925781 55.453125 -31.335938 55.453125 -43.03125 C 55.453125 -56.277344 45.863281 -64.5 32.523438 -64.5 Z M 19.550781 -54.175781 L 28.777344 -54.175781 C 34.625 -54.175781 43.03125 -53.808594 43.03125 -43.394531 C 43.03125 -35.8125 38.734375 -31.792969 30.148438 -31.792969 L 19.550781 -31.792969 Z M 19.550781 -54.175781 "/></g></g></g><g fill="#ffffff" fill-opacity="1"><g transform="translate(183.704135, 210.9011)"><g><path d="M 59.289062 0 L 59.289062 -64.5 L 47.140625 -64.5 L 47.140625 -40.199219 L 19.460938 -40.199219 L 19.460938 -64.5 L 7.308594 -64.5 L 7.308594 0 L 19.460938 0 L 19.460938 -29.324219 L 47.140625 -29.324219 L 47.140625 0 Z M 59.289062 0 "/></g></g></g><g fill="#ffffff" fill-opacity="1"><g transform="translate(248.602078, 212.53746)"><g><path d="M 2.71875 -4.390625 C 2.71875 -6.117188 3.269531 -7.4375 4.375 -8.34375 C 5.488281 -9.25 6.847656 -9.703125 8.453125 -9.703125 C 10.054688 -9.703125 11.410156 -9.25 12.515625 -8.34375 C 13.628906 -7.4375 14.1875 -6.117188 14.1875 -4.390625 C 14.1875 -2.648438 13.628906 -1.328125 12.515625 -0.421875 C 11.410156 0.484375 10.054688 0.9375 8.453125 0.9375 C 6.847656 0.9375 5.488281 0.484375 4.375 -0.421875 C 3.269531 -1.328125 2.71875 -2.648438 2.71875 -4.390625 Z M 2.71875 -4.390625 "/></g></g></g></svg>